<svg width="256" height="33" viewBox="0 0 256 33" fill="none" xmlns="http://www.w3.org/2000/svg">
<path d="M0 32.453V0.54696H9.9422C15.6455 0.54696 19.8382 1.97514 22.5202 4.83149C25.2331 7.68785 26.5896 11.6077 26.5896 16.5912C26.5896 21.4834 25.2331 25.3577 22.5202 28.2141C19.8382 31.0401 15.6455 32.453 9.9422 32.453H0ZM3.88439 29.2624H9.84971C12.9942 29.2624 15.4913 28.7611 17.341 27.7583C19.2216 26.7251 20.5626 25.2666 21.3642 23.3826C22.1657 21.4682 22.5665 19.2044 22.5665 16.5912C22.5665 13.9171 22.1657 11.6229 21.3642 9.70856C20.5626 7.7942 19.2216 6.32044 17.341 5.28729C15.4913 4.25414 12.9942 3.73757 9.84971 3.73757H3.88439V29.2624Z" fill="white"/>
<path d="M43.3428 33C41.1849 33 39.2427 32.5138 37.5163 31.5414C35.7899 30.5691 34.418 29.2017 33.4007 27.4392C32.4141 25.6464 31.9209 23.5497 31.9209 21.1492C31.9209 18.7486 32.4296 16.6671 33.4469 14.9047C34.4642 13.1119 35.8361 11.7293 37.5625 10.7569C39.3197 9.78453 41.2773 9.29834 43.4353 9.29834C45.5933 9.29834 47.5355 9.78453 49.2619 10.7569C50.9883 11.7293 52.3448 13.1119 53.3313 14.9047C54.3486 16.6671 54.8573 18.7486 54.8573 21.1492C54.8573 23.5497 54.3486 25.6464 53.3313 27.4392C52.3139 29.2017 50.9267 30.5691 49.1694 31.5414C47.443 32.5138 45.5008 33 43.3428 33ZM43.3428 29.7182C44.6685 29.7182 45.9016 29.3992 47.0423 28.7611C48.1829 28.1229 49.1078 27.1657 49.8168 25.8895C50.5259 24.6133 50.8804 23.0331 50.8804 21.1492C50.8804 19.2652 50.5259 17.6851 49.8168 16.4088C49.1386 15.1326 48.2292 14.1754 47.0885 13.5373C45.9479 12.8992 44.7301 12.5801 43.4353 12.5801C42.1097 12.5801 40.8766 12.8992 39.7359 13.5373C38.5953 14.1754 37.6704 15.1326 36.9613 16.4088C36.2523 17.6851 35.8978 19.2652 35.8978 21.1492C35.8978 23.0331 36.2523 24.6133 36.9613 25.8895C37.6704 27.1657 38.5798 28.1229 39.6897 28.7611C40.8303 29.3992 42.048 29.7182 43.3428 29.7182Z" fill="white"/>
<path d="M71.7265 33C69.5377 33 67.5647 32.5138 65.8074 31.5414C64.081 30.5387 62.7092 29.1561 61.6918 27.3936C60.7053 25.6008 60.2121 23.5193 60.2121 21.1492C60.2121 18.779 60.7053 16.7127 61.6918 14.9503C62.7092 13.1575 64.081 11.7749 65.8074 10.8025C67.5647 9.79972 69.5377 9.29834 71.7265 9.29834C74.4394 9.29834 76.7207 9.99724 78.5704 11.395C80.451 12.7928 81.6379 14.6616 82.1311 17.0014H78.1543C77.846 15.6036 77.0907 14.5249 75.8884 13.7652C74.6861 12.9751 73.2834 12.5801 71.6803 12.5801C70.3855 12.5801 69.1677 12.8992 68.0271 13.5373C66.8864 14.1754 65.9616 15.1326 65.2525 16.4088C64.5435 17.6851 64.1889 19.2652 64.1889 21.1492C64.1889 23.0331 64.5435 24.6133 65.2525 25.8895C65.9616 27.1657 66.8864 28.1381 68.0271 28.8066C69.1677 29.4448 70.3855 29.7638 71.6803 29.7638C73.2834 29.7638 74.6861 29.384 75.8884 28.6243C77.0907 27.8343 77.846 26.7251 78.1543 25.297H82.1311C81.6687 27.576 80.4972 29.4296 78.6167 30.8577C76.7362 32.2859 74.4394 33 71.7265 33Z" fill="white"/>
<path d="M96.9122 32.453C94.8159 32.453 93.1665 31.9517 91.9642 30.9489C90.7619 29.9461 90.1608 28.1381 90.1608 25.5249V13.0815H86.1839V9.8453H90.1608L90.6694 4.42127H94.0452V9.8453H100.797V13.0815H94.0452V25.5249C94.0452 26.953 94.338 27.9254 94.9238 28.442C95.5095 28.9282 96.5423 29.1713 98.022 29.1713H100.427V32.453H96.9122Z" fill="white"/>
<path d="M116.475 33C114.317 33 112.375 32.5138 110.648 31.5414C108.922 30.5691 107.55 29.2017 106.533 27.4392C105.546 25.6464 105.053 23.5497 105.053 21.1492C105.053 18.7486 105.562 16.6671 106.579 14.9047C107.596 13.1119 108.968 11.7293 110.695 10.7569C112.452 9.78453 114.41 9.29834 116.568 9.29834C118.726 9.29834 120.668 9.78453 122.394 10.7569C124.121 11.7293 125.477 13.1119 126.464 14.9047C127.481 16.6671 127.99 18.7486 127.99 21.1492C127.99 23.5497 127.481 25.6464 126.464 27.4392C125.446 29.2017 124.059 30.5691 122.302 31.5414C120.575 32.5138 118.633 33 116.475 33ZM116.475 29.7182C117.801 29.7182 119.034 29.3992 120.174 28.7611C121.315 28.1229 122.24 27.1657 122.949 25.8895C123.658 24.6133 124.013 23.0331 124.013 21.1492C124.013 19.2652 123.658 17.6851 122.949 16.4088C122.271 15.1326 121.361 14.1754 120.221 13.5373C119.08 12.8992 117.862 12.5801 116.568 12.5801C115.242 12.5801 114.009 12.8992 112.868 13.5373C111.727 14.1754 110.803 15.1326 110.094 16.4088C109.385 17.6851 109.03 19.2652 109.03 21.1492C109.03 23.0331 109.385 24.6133 110.094 25.8895C110.803 27.1657 111.712 28.1229 112.822 28.7611C113.963 29.3992 115.18 29.7182 116.475 29.7182Z" fill="white"/>
<path d="M134.315 32.453V9.8453H137.83L138.154 14.1754C138.863 12.6865 139.942 11.5014 141.391 10.6202C142.839 9.73895 144.628 9.29834 146.755 9.29834V13.3094H145.691C144.335 13.3094 143.086 13.5525 141.945 14.0387C140.805 14.4945 139.895 15.2845 139.217 16.4088C138.539 17.5331 138.2 19.0829 138.2 21.058V32.453H134.315Z" fill="white"/>
<path d="M166.652 33C163.384 33 160.579 32.3163 158.236 30.9489C155.893 29.5511 154.089 27.6215 152.826 25.1602C151.562 22.6685 150.93 19.797 150.93 16.5456C150.93 13.2942 151.562 10.4227 152.826 7.93094C154.089 5.43923 155.893 3.49448 158.236 2.09669C160.579 0.698895 163.384 0 166.652 0C170.536 0 173.712 0.957182 176.178 2.87155C178.675 4.75552 180.232 7.41436 180.849 10.8481H174.328C173.928 9.11602 173.064 7.76381 171.739 6.79144C170.444 5.78867 168.718 5.28729 166.56 5.28729C163.569 5.28729 161.226 6.29006 159.531 8.29558C157.835 10.3011 156.987 13.0511 156.987 16.5456C156.987 20.0401 157.835 22.7901 159.531 24.7956C161.226 26.7707 163.569 27.7583 166.56 27.7583C168.718 27.7583 170.444 27.3025 171.739 26.3909C173.064 25.4489 173.928 24.1575 174.328 22.5166H180.849C180.232 25.7983 178.675 28.366 176.178 30.2196C173.712 32.0732 170.536 33 166.652 33Z" fill="white"/>
<path d="M194.782 33C192.809 33 191.19 32.6961 189.926 32.0884C188.662 31.4503 187.722 30.6146 187.105 29.5815C186.489 28.5483 186.181 27.4088 186.181 26.163C186.181 24.0663 187.013 22.3646 188.678 21.058C190.342 19.7514 192.84 19.0981 196.169 19.0981H201.996V18.5511C201.996 17.0014 201.549 15.8619 200.655 15.1326C199.761 14.4033 198.651 14.0387 197.325 14.0387C196.123 14.0387 195.075 14.3273 194.181 14.9047C193.287 15.4517 192.732 16.2721 192.516 17.366H186.736C186.89 15.7251 187.445 14.297 188.4 13.0815C189.387 11.866 190.651 10.9392 192.192 10.3011C193.734 9.6326 195.46 9.29834 197.371 9.29834C200.639 9.29834 203.213 10.1036 205.094 11.7141C206.974 13.3246 207.915 15.6036 207.915 18.5511V32.453H202.874L202.319 28.8066C201.641 30.0221 200.685 31.0249 199.452 31.8149C198.25 32.605 196.693 33 194.782 33ZM196.123 28.442C197.818 28.442 199.129 27.895 200.053 26.8011C201.009 25.7072 201.61 24.355 201.857 22.7445H196.816C195.244 22.7445 194.119 23.0331 193.441 23.6105C192.763 24.1575 192.423 24.8412 192.423 25.6616C192.423 26.5428 192.763 27.2265 193.441 27.7127C194.119 28.1989 195.013 28.442 196.123 28.442Z" fill="white"/>
<path d="M214.488 32.453V9.8453H219.76L220.315 14.0843C221.147 12.6257 222.272 11.471 223.69 10.6202C225.139 9.73895 226.835 9.29834 228.777 9.29834V15.4517H227.112C225.818 15.4517 224.661 15.6492 223.644 16.0442C222.627 16.4392 221.825 17.1229 221.24 18.0953C220.685 19.0677 220.407 20.4199 220.407 22.1519V32.453H214.488Z" fill="white"/>
<path d="M244.486 33C242.173 33 240.123 32.5138 238.335 31.5414C236.547 30.5691 235.145 29.2017 234.127 27.4392C233.11 25.6768 232.601 23.6409 232.601 21.3315C232.601 18.9917 233.094 16.9102 234.081 15.087C235.098 13.2638 236.486 11.8508 238.243 10.8481C240.031 9.81492 242.127 9.29834 244.532 9.29834C246.782 9.29834 248.771 9.78453 250.497 10.7569C252.223 11.7293 253.565 13.0663 254.52 14.768C255.507 16.4392 256 18.308 256 20.3743C256 20.7086 255.985 21.058 255.954 21.4227C255.954 21.7873 255.938 22.1671 255.908 22.5622H238.474C238.597 24.3246 239.214 25.7072 240.324 26.7099C241.464 27.7127 242.836 28.2141 244.439 28.2141C245.642 28.2141 246.644 27.9558 247.445 27.4392C248.277 26.8923 248.894 26.1934 249.295 25.3425H255.306C254.875 26.7707 254.15 28.0773 253.133 29.2624C252.146 30.4171 250.913 31.3287 249.434 31.9972C247.985 32.6657 246.335 33 244.486 33ZM244.532 14.0387C243.083 14.0387 241.803 14.4489 240.694 15.2693C239.584 16.0594 238.875 17.2749 238.566 18.9157H249.988C249.896 17.4268 249.341 16.2417 248.324 15.3605C247.306 14.4793 246.042 14.0387 244.532 14.0387Z" fill="white"/>
</svg>
