<svg width="134" height="19" viewBox="0 0 134 19" fill="none" xmlns="http://www.w3.org/2000/svg">
<path d="M0.775879 18V1.19999H5.93588C8.89588 1.19999 11.0719 1.95199 12.4639 3.45599C13.8719 4.95999 14.5759 7.02399 14.5759 9.64799C14.5759 12.224 13.8719 14.264 12.4639 15.768C11.0719 17.256 8.89588 18 5.93588 18H0.775879ZM2.79188 16.32H5.88788C7.51988 16.32 8.81588 16.056 9.77588 15.528C10.7519 14.984 11.4479 14.216 11.8639 13.224C12.2799 12.216 12.4879 11.024 12.4879 9.64799C12.4879 8.23999 12.2799 7.03199 11.8639 6.02399C11.4479 5.01599 10.7519 4.23999 9.77588 3.69599C8.81588 3.15199 7.51988 2.87999 5.88788 2.87999H2.79188V16.32Z" fill="#212529"/>
<path d="M23.2708 18.288C22.1508 18.288 21.1428 18.032 20.2468 17.52C19.3508 17.008 18.6388 16.288 18.1108 15.36C17.5988 14.416 17.3428 13.312 17.3428 12.048C17.3428 10.784 17.6068 9.68799 18.1348 8.75999C18.6628 7.81599 19.3748 7.08799 20.2708 6.57599C21.1828 6.06399 22.1988 5.80799 23.3188 5.80799C24.4388 5.80799 25.4468 6.06399 26.3428 6.57599C27.2388 7.08799 27.9428 7.81599 28.4548 8.75999C28.9828 9.68799 29.2468 10.784 29.2468 12.048C29.2468 13.312 28.9828 14.416 28.4548 15.36C27.9268 16.288 27.2068 17.008 26.2948 17.52C25.3988 18.032 24.3908 18.288 23.2708 18.288ZM23.2708 16.56C23.9588 16.56 24.5988 16.392 25.1908 16.056C25.7828 15.72 26.2628 15.216 26.6308 14.544C26.9988 13.872 27.1828 13.04 27.1828 12.048C27.1828 11.056 26.9988 10.224 26.6308 9.55199C26.2788 8.87999 25.8068 8.37599 25.2148 8.03999C24.6228 7.70399 23.9908 7.53599 23.3188 7.53599C22.6308 7.53599 21.9908 7.70399 21.3988 8.03999C20.8068 8.37599 20.3268 8.87999 19.9588 9.55199C19.5908 10.224 19.4068 11.056 19.4068 12.048C19.4068 13.04 19.5908 13.872 19.9588 14.544C20.3268 15.216 20.7988 15.72 21.3748 16.056C21.9668 16.392 22.5988 16.56 23.2708 16.56Z" fill="#212529"/>
<path d="M38.0019 18.288C36.8659 18.288 35.8419 18.032 34.9299 17.52C34.0339 16.992 33.3219 16.264 32.7939 15.336C32.2819 14.392 32.0259 13.296 32.0259 12.048C32.0259 10.8 32.2819 9.71199 32.7939 8.78399C33.3219 7.83999 34.0339 7.11199 34.9299 6.59999C35.8419 6.07199 36.8659 5.80799 38.0019 5.80799C39.4099 5.80799 40.5939 6.17599 41.5539 6.91199C42.5299 7.64799 43.1459 8.63199 43.4019 9.86399H41.3379C41.1779 9.12799 40.7859 8.55999 40.1619 8.15999C39.5379 7.74399 38.8099 7.53599 37.9779 7.53599C37.3059 7.53599 36.6739 7.70399 36.0819 8.03999C35.4899 8.37599 35.0099 8.87999 34.6419 9.55199C34.2739 10.224 34.0899 11.056 34.0899 12.048C34.0899 13.04 34.2739 13.872 34.6419 14.544C35.0099 15.216 35.4899 15.728 36.0819 16.08C36.6739 16.416 37.3059 16.584 37.9779 16.584C38.8099 16.584 39.5379 16.384 40.1619 15.984C40.7859 15.568 41.1779 14.984 41.3379 14.232H43.4019C43.1619 15.432 42.5539 16.408 41.5779 17.16C40.6019 17.912 39.4099 18.288 38.0019 18.288Z" fill="#212529"/>
<path d="M51.0733 18C49.9853 18 49.1293 17.736 48.5053 17.208C47.8813 16.68 47.5693 15.728 47.5693 14.352V7.79999H45.5053V6.09599H47.5693L47.8333 3.23999H49.5853V6.09599H53.0893V7.79999H49.5853V14.352C49.5853 15.104 49.7373 15.616 50.0413 15.888C50.3453 16.144 50.8813 16.272 51.6493 16.272H52.8973V18H51.0733Z" fill="#212529"/>
<path d="M61.2264 18.288C60.1064 18.288 59.0984 18.032 58.2024 17.52C57.3064 17.008 56.5944 16.288 56.0664 15.36C55.5544 14.416 55.2984 13.312 55.2984 12.048C55.2984 10.784 55.5624 9.68799 56.0904 8.75999C56.6184 7.81599 57.3304 7.08799 58.2264 6.57599C59.1384 6.06399 60.1544 5.80799 61.2744 5.80799C62.3944 5.80799 63.4024 6.06399 64.2984 6.57599C65.1944 7.08799 65.8984 7.81599 66.4104 8.75999C66.9384 9.68799 67.2024 10.784 67.2024 12.048C67.2024 13.312 66.9384 14.416 66.4104 15.36C65.8824 16.288 65.1624 17.008 64.2504 17.52C63.3544 18.032 62.3464 18.288 61.2264 18.288ZM61.2264 16.56C61.9144 16.56 62.5544 16.392 63.1464 16.056C63.7384 15.72 64.2184 15.216 64.5864 14.544C64.9544 13.872 65.1384 13.04 65.1384 12.048C65.1384 11.056 64.9544 10.224 64.5864 9.55199C64.2344 8.87999 63.7624 8.37599 63.1704 8.03999C62.5784 7.70399 61.9464 7.53599 61.2744 7.53599C60.5864 7.53599 59.9464 7.70399 59.3544 8.03999C58.7624 8.37599 58.2824 8.87999 57.9144 9.55199C57.5464 10.224 57.3624 11.056 57.3624 12.048C57.3624 13.04 57.5464 13.872 57.9144 14.544C58.2824 15.216 58.7544 15.72 59.3304 16.056C59.9224 16.392 60.5544 16.56 61.2264 16.56Z" fill="#212529"/>
<path d="M70.4856 18V6.09599H72.3096L72.4776 8.37599C72.8456 7.59199 73.4056 6.96799 74.1576 6.50399C74.9096 6.03999 75.8376 5.80799 76.9416 5.80799V7.91999H76.3896C75.6856 7.91999 75.0376 8.04799 74.4456 8.30399C73.8536 8.54399 73.3816 8.95999 73.0296 9.55199C72.6776 10.144 72.5016 10.96 72.5016 12V18H70.4856Z" fill="#212529"/>
<path d="M87.2683 18.288C85.5723 18.288 84.1163 17.928 82.9003 17.208C81.6843 16.472 80.7483 15.456 80.0923 14.16C79.4363 12.848 79.1083 11.336 79.1083 9.62399C79.1083 7.91199 79.4363 6.39999 80.0923 5.08799C80.7483 3.77599 81.6843 2.75199 82.9003 2.01599C84.1163 1.27999 85.5723 0.911987 87.2683 0.911987C89.2843 0.911987 90.9323 1.41599 92.2123 2.42399C93.5083 3.41599 94.3163 4.81599 94.6363 6.62399H91.2523C91.0443 5.71199 90.5963 4.99999 89.9083 4.48799C89.2363 3.95999 88.3403 3.69599 87.2203 3.69599C85.6683 3.69599 84.4523 4.22399 83.5723 5.27999C82.6923 6.33599 82.2523 7.78399 82.2523 9.62399C82.2523 11.464 82.6923 12.912 83.5723 13.968C84.4523 15.008 85.6683 15.528 87.2203 15.528C88.3403 15.528 89.2363 15.288 89.9083 14.808C90.5963 14.312 91.0443 13.632 91.2523 12.768H94.6363C94.3163 14.496 93.5083 15.848 92.2123 16.824C90.9323 17.8 89.2843 18.288 87.2683 18.288Z" fill="#00856F"/>
<path d="M101.868 18.288C100.844 18.288 100.004 18.128 99.3476 17.808C98.6916 17.472 98.2036 17.032 97.8836 16.488C97.5636 15.944 97.4036 15.344 97.4036 14.688C97.4036 13.584 97.8356 12.688 98.6996 12C99.5636 11.312 100.86 10.968 102.588 10.968H105.612V10.68C105.612 9.86399 105.38 9.26399 104.916 8.87999C104.452 8.49599 103.876 8.30399 103.188 8.30399C102.564 8.30399 102.02 8.45599 101.556 8.75999C101.092 9.04799 100.804 9.47999 100.692 10.056H97.6916C97.7716 9.19199 98.0596 8.43999 98.5556 7.79999C99.0676 7.15999 99.7236 6.67199 100.524 6.33599C101.324 5.98399 102.22 5.80799 103.212 5.80799C104.908 5.80799 106.244 6.23199 107.22 7.07999C108.196 7.92799 108.684 9.12799 108.684 10.68V18H106.068L105.78 16.08C105.428 16.72 104.932 17.248 104.292 17.664C103.668 18.08 102.86 18.288 101.868 18.288ZM102.564 15.888C103.444 15.888 104.124 15.6 104.604 15.024C105.1 14.448 105.412 13.736 105.54 12.888H102.924C102.108 12.888 101.524 13.04 101.172 13.344C100.82 13.632 100.644 13.992 100.644 14.424C100.644 14.888 100.82 15.248 101.172 15.504C101.524 15.76 101.988 15.888 102.564 15.888Z" fill="#00856F"/>
<path d="M112.095 18V6.09599H114.831L115.119 8.32799C115.551 7.55999 116.135 6.95199 116.871 6.50399C117.623 6.03999 118.503 5.80799 119.511 5.80799V9.04799H118.647C117.975 9.04799 117.375 9.15199 116.847 9.35999C116.319 9.56799 115.903 9.92799 115.599 10.44C115.311 10.952 115.167 11.664 115.167 12.576V18H112.095Z" fill="#00856F"/>
<path d="M127.664 18.288C126.464 18.288 125.4 18.032 124.472 17.52C123.544 17.008 122.816 16.288 122.288 15.36C121.76 14.432 121.496 13.36 121.496 12.144C121.496 10.912 121.752 9.81599 122.264 8.85599C122.792 7.89599 123.512 7.15199 124.424 6.62399C125.352 6.07999 126.44 5.80799 127.688 5.80799C128.856 5.80799 129.888 6.06399 130.784 6.57599C131.68 7.08799 132.376 7.79199 132.872 8.68799C133.384 9.56799 133.64 10.552 133.64 11.64C133.64 11.816 133.632 12 133.616 12.192C133.616 12.384 133.608 12.584 133.592 12.792H124.544C124.608 13.72 124.928 14.448 125.504 14.976C126.096 15.504 126.808 15.768 127.64 15.768C128.264 15.768 128.784 15.632 129.2 15.36C129.632 15.072 129.952 14.704 130.16 14.256H133.28C133.056 15.008 132.68 15.696 132.152 16.32C131.64 16.928 131 17.408 130.232 17.76C129.48 18.112 128.624 18.288 127.664 18.288ZM127.688 8.30399C126.936 8.30399 126.272 8.51999 125.696 8.95199C125.12 9.36799 124.752 10.008 124.592 10.872H130.52C130.472 10.088 130.184 9.46399 129.656 8.99999C129.128 8.53599 128.472 8.30399 127.688 8.30399Z" fill="#00856F"/>
</svg>
